Coordinates
version=1
nRows=43
nColumns=12
inDegrees=yes

Units are S.I. units (second, meters, Newtons, ...)
Angles are in degrees

endheader
time	SC_y	SC_z	SC_x	AC_y	AC_z	AC_x	GH_y	GH_z	GH_yy	EL_x	PS_y
       0.0              -54.46          37.34          62.18          36.14           5.49         -3.764         -114.7           46.7          136.6          135.0          54.43
   0.01491              -54.46          37.34          62.17          36.14          5.488         -3.761         -114.6          46.69          136.6          135.0          54.43
   0.02982              -54.46          37.34          62.16          36.15          5.486         -3.758         -114.6          46.68          136.6          135.0          54.44
   0.04472              -54.46          37.33          62.16          36.15          5.483         -3.754         -114.6          46.67          136.6          135.0          54.44
   0.05963              -54.45          37.33          62.15          36.15           5.48         -3.751         -114.5          46.66          136.6          135.0          54.44
   0.07454              -54.45          37.33          62.14          36.16          5.477         -3.747         -114.5          46.65          136.6          135.0          54.45
   0.08945              -54.45          37.32          62.14          36.16          5.474         -3.742         -114.4          46.64          136.6          135.0          54.45
    0.1044              -54.44          37.32          62.13          36.17           5.47         -3.738         -114.4          46.63          136.6          134.9          54.45
    0.1193              -54.44          37.31          62.12          36.17          5.467         -3.733         -114.3          46.62          136.6          134.9          54.46
    0.1342              -54.43          37.31          62.11          36.18          5.463         -3.728         -114.2          46.61          136.5          134.9          54.46
    0.1491              -54.43           37.3           62.1          36.18          5.458         -3.722         -114.2           46.6          136.5          134.9          54.46
     0.164              -54.42           37.3          62.09          36.19          5.454         -3.716         -114.1          46.58          136.5          134.9          54.47
    0.1789              -54.42          37.29          62.08           36.2          5.449          -3.71         -114.0          46.57          136.5          134.9          54.47
    0.1938              -54.41          37.29          62.06           36.2          5.444         -3.703         -113.9          46.55          136.5          134.9          54.48
    0.2087              -54.41          37.28          62.05          36.21          5.438         -3.695         -113.8          46.53          136.5          134.9          54.48
    0.2236               -54.4          37.27          62.04          36.22          5.432         -3.687         -113.7          46.51          136.4          134.9          54.49
    0.2385              -54.39          37.26          62.02          36.23          5.425         -3.678         -113.6          46.49          136.4          134.8           54.5
    0.2534              -54.39          37.25           62.0          36.24          5.417         -3.668         -113.5          46.47          136.4          134.8           54.5
    0.2683              -54.38          37.24          61.98          36.25          5.409         -3.658         -113.4          46.44          136.4          134.8          54.51
    0.2832              -54.37          37.23          61.96          36.26            5.4         -3.646         -113.2          46.42          136.3          134.8          54.52
    0.2982              -54.36          37.22          61.94          36.27          5.391         -3.633         -113.1          46.39          136.3          134.8          54.53
    0.3131              -54.35          37.21          61.91          36.29           5.38         -3.619         -112.9          46.35          136.3          134.7          54.54
     0.328              -54.34          37.19          61.88           36.3          5.368         -3.604         -112.7          46.32          136.2          134.7          54.55
    0.3429              -54.32          37.18          61.85          36.32          5.355         -3.586         -112.5          46.28          136.2          134.7          54.57
    0.3578              -54.31          37.16          61.82          36.34          5.341         -3.567         -112.2          46.23          136.1          134.6          54.58
    0.3727              -54.29          37.14          61.78          36.36          5.324         -3.546         -112.0          46.18          136.1          134.6           54.6
    0.3876              -54.27          37.11          61.74          36.39          5.306         -3.522         -111.7          46.12          136.0          134.5          54.61
    0.4025              -54.25          37.09          61.69          36.41          5.286         -3.495         -111.3          46.06          135.9          134.5          54.63
    0.4174              -54.22          37.06          61.63          36.44          5.263         -3.465         -111.0          45.99          135.8          134.4          54.66
    0.4323               -54.2          37.03          61.57          36.48          5.236          -3.43         -110.5          45.91          135.7          134.4          54.68
    0.4472              -54.17          36.99           61.5          36.52          5.206         -3.391         -110.0          45.81          135.6          134.3          54.71
    0.4621              -54.13          36.95          61.41          36.56          5.172         -3.346         -109.5          45.71          135.5          134.2          54.75
     0.477              -54.09           36.9          61.32          36.62          5.132         -3.293         -108.8          45.58          135.4          134.1          54.79
     0.492              -54.04          36.84          61.21          36.68          5.086         -3.233         -108.1          45.44          135.2          134.0          54.83
    0.5069              -53.98          36.77          61.08          36.75          5.032         -3.162         -107.2          45.27          135.0          133.9          54.89
    0.5218              -53.92          36.69          60.93          36.83          4.968         -3.078         -106.2          45.08          134.8          133.7          54.95
    0.5367              -53.84           36.6          60.75          36.93          4.893         -2.979         -104.9          44.84          134.5          133.5          55.02
    0.5516              -53.74          36.49          60.53          37.05          4.802         -2.859         -103.4          44.56          134.2          133.3          55.11
    0.5665              -53.63          36.35          60.27           37.2          4.693         -2.715         -101.6          44.22          133.8          133.0          55.22
    0.5814              -53.49          36.18          59.94          37.37          4.559         -2.539         -99.45          43.81          133.3          132.7          55.35
    0.5963              -53.31          35.98          59.55          37.59          4.393         -2.322         -96.74          43.29          132.8          132.3          55.52
    0.6112               -53.1          35.72          59.06          37.87          4.187         -2.051         -93.37          42.65          132.0          131.8          55.72
    0.6261              -52.82           35.4          58.43          38.21          3.927         -1.709         -89.13          41.85          131.1          131.1          55.98
